<svg width="25" height="24" viewBox="0 0 25 24" fill="none" xmlns="http://www.w3.org/2000/svg">
<path d="M12.5 17L12.5 17.0226" stroke="white" stroke-width="2" stroke-linecap="round"/>
<path d="M13.75 7H11.25" stroke="white" stroke-width="1.5" stroke-linecap="round"/>
<path d="M19.8003 14.087H5.19969M15.4161 20.6215C13.5047 21.1262 11.4953 21.1262 9.58393 20.6215C7.22938 19.9998 5.42802 18.1003 4.93096 15.7151L4.83598 15.2593C4.38801 13.1095 4.38801 10.8905 4.83598 8.74072L4.93096 8.28494C5.42801 5.89968 7.22938 4.0002 9.58394 3.3785C11.4953 2.87383 13.5047 2.87383 15.4161 3.3785C17.7706 4.00019 19.572 5.89968 20.069 8.28494L20.164 8.74072C20.612 10.8905 20.612 13.1095 20.164 15.2593L20.069 15.7151C19.572 18.1003 17.7706 19.9998 15.4161 20.6215Z" stroke="white" stroke-width="1.5" stroke-linecap="round"/>
</svg>
