<svg width="14" height="21" viewBox="0 0 14 21" fill="none" xmlns="http://www.w3.org/2000/svg">
<path d="M2.19658 3.5C2.85743 3.5 3.39316 3.05228 3.39316 2.5C3.39316 1.94772 2.85743 1.5 2.19658 1.5C1.53573 1.5 1 1.94772 1 2.5C1 3.05228 1.53573 3.5 2.19658 3.5Z" stroke="#878F9D" stroke-width="2" stroke-linecap="round" stroke-linejoin="round"/>
<path d="M11.7688 3.5C12.4297 3.5 12.9654 3.05228 12.9654 2.5C12.9654 1.94772 12.4297 1.5 11.7688 1.5C11.108 1.5 10.5723 1.94772 10.5723 2.5C10.5723 3.05228 11.108 3.5 11.7688 3.5Z" stroke="#878F9D" stroke-width="2" stroke-linecap="round" stroke-linejoin="round"/>
<path d="M2.19658 11.5C2.85743 11.5 3.39316 11.0523 3.39316 10.5C3.39316 9.94772 2.85743 9.5 2.19658 9.5C1.53573 9.5 1 9.94772 1 10.5C1 11.0523 1.53573 11.5 2.19658 11.5Z" stroke="#878F9D" stroke-width="2" stroke-linecap="round" stroke-linejoin="round"/>
<path d="M11.7688 11.5C12.4297 11.5 12.9654 11.0523 12.9654 10.5C12.9654 9.94772 12.4297 9.5 11.7688 9.5C11.108 9.5 10.5723 9.94772 10.5723 10.5C10.5723 11.0523 11.108 11.5 11.7688 11.5Z" stroke="#878F9D" stroke-width="2" stroke-linecap="round" stroke-linejoin="round"/>
<path d="M2.19658 19.5C2.85743 19.5 3.39316 19.0523 3.39316 18.5C3.39316 17.9477 2.85743 17.5 2.19658 17.5C1.53573 17.5 1 17.9477 1 18.5C1 19.0523 1.53573 19.5 2.19658 19.5Z" stroke="#878F9D" stroke-width="2" stroke-linecap="round" stroke-linejoin="round"/>
<path d="M11.7688 19.5C12.4297 19.5 12.9654 19.0523 12.9654 18.5C12.9654 17.9477 12.4297 17.5 11.7688 17.5C11.108 17.5 10.5723 17.9477 10.5723 18.5C10.5723 19.0523 11.108 19.5 11.7688 19.5Z" stroke="#878F9D" stroke-width="2" stroke-linecap="round" stroke-linejoin="round"/>
</svg>
