<svg width="159" height="47" viewBox="0 0 159 47" fill="none" xmlns="http://www.w3.org/2000/svg">
<path d="M1.89906 7.64248C12.7341 6.09949 23.5692 4.55753 34.4043 3.0166C34.7027 2.97954 35.0055 3.00468 35.2937 3.09043C35.5819 3.17618 35.8492 3.32068 36.0786 3.5148C36.308 3.70892 36.4946 3.94844 36.6267 4.21824C36.7587 4.48803 36.8332 4.78224 36.8456 5.08227C36.84 7.32726 36.8456 9.57226 36.8456 11.8166C31.0607 16.3378 26.0864 21.8069 22.1347 27.9908C21.5537 27.4497 20.9789 26.9011 20.442 26.3154C21.3795 25.6091 22.072 24.6275 22.4224 23.5082C22.6296 22.865 22.6632 22.1786 22.5199 21.5183C22.3602 20.755 22.0129 20.0495 21.65 19.3639C21.2641 18.6509 20.936 17.8846 20.3451 17.3081C19.8766 16.8266 19.2391 16.4748 18.5549 16.4692C17.8366 16.4593 17.0823 16.7261 16.6194 17.2926C16.2335 17.7586 16.0887 18.3797 16.0937 18.9736C16.0937 19.5798 16.2521 20.1749 16.4833 20.7321C16.9961 22.0317 17.6228 23.2836 18.3561 24.4731C16.482 25.528 14.3377 25.9524 12.2294 26.2415C8.16808 26.8 4.01048 26.6095 0.0057373 25.7451C0.0057373 20.4034 0.0057373 15.0615 0.0057373 9.71932C0.0448837 8.69796 0.880629 7.77527 1.89906 7.64248ZM18.2132 12.6382C17.9282 12.9554 17.6796 13.3034 17.4719 13.6757C17.454 13.7154 17.4275 13.7506 17.3943 13.7788C17.3611 13.8071 17.3221 13.8276 17.28 13.8389C17.2379 13.8503 17.1938 13.8521 17.1509 13.8444C17.108 13.8367 17.0674 13.8195 17.032 13.7942C16.6865 13.5826 16.3484 13.3598 16.0023 13.1489C15.5353 13.7507 15.1255 14.3946 14.7782 15.0724C15.3325 15.4228 15.887 15.7732 16.4416 16.1236C16.7359 15.7855 16.9956 15.4191 17.2171 15.0296C17.2855 14.8943 17.4737 14.8242 17.6055 14.9136C17.9655 15.1204 18.3271 15.3252 18.6904 15.5279C18.8849 15.3355 19.0253 15.0991 19.1757 14.8726C19.4379 14.4612 19.6914 14.0442 19.9213 13.613C19.3571 13.2788 18.7877 12.9538 18.2132 12.6382Z" fill="#4955C0"/>
<path d="M39.6483 5.6937C40.2728 5.4517 41.0185 5.96486 40.9998 6.63625C40.9886 16.7898 40.9754 26.943 40.96 37.0957C40.988 37.4928 40.9259 37.9303 40.6195 38.2126C40.2405 38.6066 39.5682 38.5886 39.1804 38.2157C39.7036 38.0662 40.123 37.5822 40.1274 37.0287C40.1274 26.8937 40.1274 16.76 40.1274 6.62756C40.1423 6.25774 39.9416 5.91398 39.6483 5.6937Z" fill="#4955C0"/>
<path d="M23.3336 30.4519C27.0089 24.7212 31.5682 19.6068 36.8428 15.2979C36.8428 22.4188 36.8354 29.5403 36.8509 36.6606C36.8645 37.0674 36.7958 37.4728 36.6489 37.8525C36.502 38.2321 36.2799 38.5783 35.9959 38.8703C35.6746 39.196 35.2453 39.4387 34.7805 39.4622C30.1078 39.4672 25.4344 39.4585 20.7617 39.4666C19.0393 41.1324 17.3133 42.7968 15.5838 44.4598C14.8141 42.7943 14.0447 41.1289 13.2754 39.4635C9.69216 39.4635 6.10892 39.4635 2.52567 39.4635C2.27712 39.4585 2.02112 39.4839 1.77443 39.4306C1.43922 39.3621 1.12449 39.2168 0.854951 39.0064C0.585414 38.7959 0.368417 38.5258 0.221002 38.2175C0.0471384 37.8475 -0.0261525 37.4383 0.00849328 37.0311C0.0128429 34.093 0.00849328 31.1543 0.00849328 28.2156C4.43825 29.2704 9.07183 29.4988 13.5755 28.8106C15.7901 28.4966 17.9717 27.8141 19.9036 26.6773C20.9649 28.0083 22.1703 29.2108 23.3336 30.4519Z" fill="#4955C0"/>
<path d="M18.3266 19.5501C18.9591 19.1443 19.7868 19.0835 20.4877 19.341C20.7288 19.4236 20.9767 19.547 21.1053 19.7791C21.2781 20.0627 21.2128 20.4089 21.1581 20.7173C21 21.3967 20.7063 22.0372 20.2946 22.6007C19.8829 23.1641 19.3617 23.6389 18.7621 23.9967C18.4415 23.5623 18.129 23.1218 17.8301 22.6725C17.5231 22.2084 17.4529 21.6288 17.4902 21.0847C17.5318 20.4865 17.8127 19.8834 18.3266 19.5501Z" fill="#4955C0"/>
<path d="M37.0129 5.2041C37.0092 4.64192 36.788 4.10208 36.4537 3.65283C37.4976 4.38875 38.5431 5.12178 39.5904 5.85191C39.7041 5.93439 39.7971 6.04223 39.8618 6.16685C39.9265 6.29148 39.9612 6.42946 39.9632 6.56983C39.9775 12.9195 39.9682 19.2704 39.9706 25.6194C39.9663 29.4467 39.9856 33.274 39.9781 37.1019C39.9781 37.3693 39.8296 37.6144 39.6264 37.7801C39.3617 38.0078 39.0156 38.0903 38.6943 38.2089C37.7673 38.5334 36.8389 38.8523 35.9137 39.1818C36.2522 38.8929 36.5252 38.5353 36.7144 38.1328C36.9036 37.7303 37.0048 37.2921 37.011 36.8475C37.0123 26.2988 37.0129 15.7511 37.0129 5.2041Z" fill="white"/>
<path d="M22.1342 27.991C26.0852 21.8073 31.0586 16.3382 36.8427 11.8169V15.2979C31.5681 19.6068 27.0087 24.7213 23.3334 30.4519C22.1721 29.2109 20.9648 28.0084 19.906 26.6774C17.9741 27.8142 15.7925 28.4967 13.5779 28.8107C9.0742 29.4988 4.44373 29.268 0.0108643 28.2156C0.0108643 27.3937 0.0108643 26.5713 0.0108643 25.7485C4.01561 26.611 8.17321 26.8034 12.2345 26.2449C14.3428 25.9558 16.4872 25.5313 18.3612 24.4765C17.6279 23.2869 17.0012 22.035 16.4884 20.7354C16.2573 20.177 16.1019 19.5832 16.0988 18.9769C16.0938 18.3831 16.2386 17.762 16.6245 17.296C17.0874 16.7294 17.8418 16.4626 18.5601 16.4726C19.2436 16.4781 19.8817 16.83 20.3502 17.3115C20.9387 17.8879 21.2668 18.6543 21.6551 19.3672C22.0149 20.0529 22.3622 20.7584 22.525 21.5216C22.6683 22.182 22.6347 22.8684 22.4275 23.5116C22.0771 24.6309 21.3846 25.6125 20.4472 26.3188C20.9784 26.9014 21.5532 27.4499 22.1342 27.991ZM18.3264 19.5521C17.8126 19.8853 17.5317 20.4885 17.4901 21.0866C17.4528 21.6308 17.523 22.2104 17.83 22.6745C18.1288 23.1238 18.4414 23.5643 18.762 23.9987C19.3616 23.6409 19.8828 23.1661 20.2945 22.6027C20.7061 22.0392 20.9998 21.3987 21.158 20.7193C21.2127 20.409 21.2779 20.0647 21.1052 19.7811C20.9766 19.549 20.7286 19.4255 20.4876 19.343C19.7866 19.0836 18.959 19.1445 18.3264 19.5503V19.5521Z" fill="white"/>
<path d="M18.2128 12.6382C18.7869 12.9509 19.3557 13.2748 19.9191 13.6099C19.691 14.0411 19.4375 14.4581 19.1734 14.8695C19.0231 15.096 18.8826 15.3324 18.6881 15.5248C18.3253 15.3221 17.9636 15.1173 17.6032 14.9105C17.4715 14.8211 17.2832 14.8912 17.2149 15.0265C16.9934 15.416 16.7336 15.7824 16.4394 16.1205C15.8839 15.7717 15.3294 15.4214 14.776 15.0693C15.1233 14.3915 15.5331 13.7476 16.0001 13.1458C16.3443 13.3592 16.6836 13.5801 17.0297 13.7911C17.0651 13.8164 17.1057 13.8337 17.1485 13.8415C17.1913 13.8493 17.2354 13.8476 17.2774 13.8363C17.3195 13.8251 17.3586 13.8047 17.3918 13.7766C17.4251 13.7485 17.4516 13.7134 17.4696 13.6738C17.678 13.3021 17.9273 12.9547 18.2128 12.6382Z" fill="white"/>
<path d="M83.0188 3.30944C83.8246 3.01261 84.9138 3.25382 85.2862 4.05182C85.6761 4.78671 85.3447 5.7953 84.5226 6.11087C83.8318 6.40583 82.9213 6.30272 82.4105 5.74281C81.7281 5.00542 82.0017 3.63814 83.0188 3.30944Z" fill="#4955C0"/>
<path d="M70.8843 3.0332C71.956 3.0332 73.0289 3.03695 74.1012 3.0332C74.1059 5.894 74.1059 8.75543 74.1012 11.6175C74.9408 10.1715 75.9923 8.85354 76.9346 7.46876C78.2292 7.46876 79.5231 7.46876 80.8169 7.46876C79.5909 8.78938 78.3635 10.1111 77.1348 11.4338C78.5469 13.371 79.9344 15.32 81.3505 17.251C80.0306 17.2828 78.7107 17.256 77.3895 17.2653C76.5664 15.9276 75.7406 14.5897 74.9122 13.2516C74.6406 13.5641 74.3702 13.8765 74.1044 14.1958C74.1044 15.219 74.1044 16.2422 74.1044 17.2653C73.0308 17.2653 71.9581 17.2653 70.8863 17.2653C70.8837 12.5215 70.883 7.77746 70.8843 3.0332Z" fill="#4955C0"/>
<path d="M49.4109 3.74609C53.0502 3.75109 56.6855 3.74609 60.3235 3.74609C60.3235 4.60096 60.3235 5.45458 60.3235 6.30819C59.0309 6.31132 57.7377 6.30319 56.4451 6.31257C56.4494 9.962 56.4494 13.6116 56.4451 17.2615H53.2107C53.2107 13.6108 53.2107 9.96033 53.2107 6.31007C51.9434 6.30444 50.6762 6.31007 49.4089 6.31007C49.4107 5.4552 49.4113 4.60054 49.4109 3.74609Z" fill="#4955C0"/>
<path d="M60.2026 8.10184C61.5674 7.43382 63.127 7.19699 64.6529 7.25635C65.8312 7.30822 67.0874 7.66379 67.8503 8.56864C68.6561 9.506 68.792 10.7789 68.7478 11.9487C68.7829 13.7153 68.6438 15.4957 68.9005 17.2529C67.9348 17.2735 66.9704 17.2529 66.0047 17.2635C65.9397 16.9255 65.8747 16.5874 65.8065 16.2506C64.5223 17.6966 61.9254 17.9378 60.4418 16.6443C59.0329 15.4082 59.1921 13.0029 60.7056 11.9056C62.0632 10.9002 63.8666 10.7221 65.5309 10.7096C65.5541 10.4296 65.4743 10.1507 65.3056 9.92154C65.1368 9.69235 64.8897 9.52737 64.6074 9.45538C63.3149 9.12668 61.943 9.49225 60.7836 10.0603C60.6114 9.40351 60.3995 8.75424 60.2026 8.10184ZM63.1374 13.1667C62.498 13.6197 62.4538 14.6983 63.1374 15.1295C63.8958 15.5669 64.9616 15.2338 65.4009 14.5265C65.7636 13.9578 65.566 13.2585 65.6186 12.6311C64.7725 12.6311 63.8445 12.6693 63.1374 13.1667Z" fill="#4955C0"/>
<path d="M82.12 7.46338C83.1923 7.47025 84.2646 7.46338 85.3369 7.46338C85.3339 10.7291 85.3339 13.9955 85.3369 17.2625C84.2633 17.2625 83.1904 17.2625 82.1181 17.2625C82.1174 13.9986 82.109 10.7304 82.12 7.46338Z" fill="#4955C0"/>
<path d="M102.91 21.9849C104.074 21.9849 105.239 21.9849 106.405 21.9849C106.405 27.3646 106.405 32.7449 106.405 38.1257C106.414 39.1 106.455 40.0734 106.509 41.0477H103.389C103.335 40.3614 103.317 39.6725 103.226 38.9895C101.877 41.3072 98.467 41.9718 96.1055 40.7204C94.3245 39.8106 93.2521 37.9801 92.9527 36.1228C92.6341 34.1047 92.8935 31.9143 94.1008 30.1859C95.067 28.7755 96.7218 27.7954 98.4992 27.6849C100.135 27.5443 101.971 28.0364 102.915 29.4008C102.903 26.9291 102.91 24.4565 102.91 21.9849ZM99.0589 30.3072C98.6567 30.4009 98.2778 30.5705 97.9442 30.8061C97.6107 31.0417 97.3292 31.3388 97.1161 31.6799C96.4197 32.768 96.2691 34.0997 96.4145 35.346C96.5468 36.4165 97.0238 37.5222 97.9874 38.1525C99.1686 38.9284 100.923 38.8171 101.933 37.8261C102.717 37.1037 102.966 36.0181 102.91 35.0129C102.859 33.898 103.105 32.6801 102.46 31.6749C101.823 30.5458 100.349 29.9883 99.0589 30.3072Z" fill="#4955C0"/>
<path d="M55.5038 22.9399C56.9932 22.9491 58.4816 22.9324 59.9719 22.9491C62.0105 28.9865 64.0856 35.0129 66.1399 41.0461C64.889 41.0461 63.6391 41.0461 62.3882 41.0461C61.8178 39.333 61.245 37.6213 60.67 35.911C58.6644 35.911 56.6589 35.911 54.6534 35.911C54.1079 37.6219 53.5624 39.3336 53.017 41.0461C51.8149 41.0461 50.611 41.0461 49.4089 41.0461C51.44 35.0107 53.4716 28.9753 55.5038 22.9399ZM57.5772 25.641C56.9679 28.2759 56.0696 30.8304 55.227 33.4067C56.8408 33.4067 58.4564 33.4067 60.072 33.4067C59.3199 31.0631 58.4338 28.758 57.8401 26.3759C57.7864 26.1209 57.698 25.8738 57.5772 25.641Z" fill="#4955C0"/>
<path d="M70.462 28.5586C72.7252 27.437 75.5106 27.4044 77.8765 28.2598C77.6885 29.0968 77.4648 29.9246 77.2602 30.7566C75.8927 30.2075 74.2841 30.0292 72.8827 30.5674C71.6841 31.0228 70.8319 32.1025 70.5665 33.2894C70.287 34.5499 70.4211 35.9511 71.1758 37.0467C71.7642 37.9005 72.7504 38.4696 73.8054 38.6312C75.0092 38.8086 76.2488 38.6161 77.3742 38.1884C77.5301 39.0112 77.6937 39.8339 77.8556 40.6567C76.1661 41.2836 74.2989 41.4502 72.5076 41.215C70.8137 40.9739 69.1755 40.1545 68.1649 38.8153C66.9253 37.2007 66.6485 35.0705 67.0054 33.1404C67.3623 31.2102 68.634 29.4609 70.462 28.5586Z" fill="#4955C0"/>
<path d="M79.9086 28.8028C81.8236 27.7984 84.1033 27.4912 86.2629 27.7591C87.7723 27.9441 89.2364 28.7702 89.9119 30.1027C90.7588 31.6646 90.5638 33.4708 90.5839 35.1666C90.6126 37.1277 90.4838 39.1005 90.7762 41.0499C89.7265 41.0499 88.6767 41.0499 87.6269 41.0499C87.5521 40.5477 87.4729 40.053 87.3945 39.555C85.7476 41.5069 82.3459 41.9957 80.2925 40.356C78.3532 38.785 78.5351 35.565 80.5328 34.1103C82.3842 32.7493 84.8389 32.52 87.1003 32.52C87.0951 31.9516 87.0237 31.3482 86.6425 30.8895C86.1698 30.2827 85.3472 30.0583 84.5882 30.0232C83.1889 29.9782 81.8045 30.311 80.5919 30.9841C80.3639 30.2525 80.1332 29.5293 79.9086 28.8028ZM83.7604 35.1641C83.1389 35.4286 82.5896 35.9249 82.4451 36.5753C82.2458 37.3587 82.4878 38.3405 83.2956 38.7306C84.6152 39.3575 86.3735 38.6812 86.9602 37.4148C87.3397 36.5451 87.1108 35.5734 87.1569 34.6585C86.0105 34.6569 84.8197 34.7037 83.7604 35.1624V35.1641Z" fill="#4955C0"/>
<path d="M111.571 28.7753C113.088 27.7248 115.085 27.4603 116.9 27.8027C118.204 28.0523 119.356 28.7802 120.111 29.8324C121.272 31.4596 121.519 33.5303 121.243 35.4404C118.172 35.4404 115.101 35.4404 112.03 35.4404C112.056 36.788 112.969 38.0677 114.331 38.4929C116.195 39.0839 118.248 38.7867 120.083 38.2184C120.249 38.9767 120.413 39.7367 120.595 40.4942C118.784 41.1915 116.789 41.3957 114.85 41.2693C113.054 41.1329 111.239 40.4089 110.113 39.0311C108.854 37.5153 108.532 35.478 108.766 33.6015C109 31.7249 109.939 29.8826 111.571 28.7753ZM113.312 30.5949C112.55 31.2294 112.172 32.1769 112.037 33.1118C114.039 33.1185 116.046 33.1026 118.051 33.1185C118.081 32.0932 117.716 30.9699 116.8 30.3564C115.76 29.7035 114.253 29.8015 113.317 30.5949H113.312Z" fill="#4955C0"/>
<path d="M128.929 28.0314C130.394 27.4655 132.222 27.5007 133.506 28.4499C134.088 28.8608 134.496 29.4467 134.794 30.0678C135.495 29.0584 136.519 28.2306 137.74 27.8606C139.257 27.4421 141.058 27.6505 142.23 28.7236C143.437 29.8117 143.828 31.4681 143.869 32.999C143.877 35.6825 143.869 38.3659 143.869 41.0477H140.457C140.454 38.5662 140.454 36.0853 140.457 33.605C140.438 32.7019 140.292 31.7234 139.653 31.0153C139.014 30.3072 137.87 30.1908 137.02 30.5809C136.011 31.0421 135.43 32.1059 135.453 33.1513C135.443 35.7829 135.453 38.4153 135.448 41.0477C134.311 41.0477 133.174 41.0477 132.037 41.0477C132.037 38.4658 132.037 35.8833 132.037 33.3003C132.018 32.4324 131.822 31.4849 131.136 30.863C130.352 30.1833 129.068 30.2168 128.257 30.8303C127.474 31.4104 127.032 32.3595 127.03 33.297C127.026 35.88 127.026 38.463 127.03 41.046C125.889 41.046 124.753 41.046 123.615 41.046C123.611 38.5166 123.611 35.9871 123.615 33.4577C123.61 31.6221 123.652 29.7849 123.512 27.9535C124.516 27.9535 125.52 27.9535 126.524 27.9535C126.572 28.6075 126.619 29.2615 126.665 29.9155C127.254 29.1362 127.972 28.403 128.929 28.0314Z" fill="#4955C0"/>
<path d="M144.931 27.9551C146.209 27.9551 147.488 27.9551 148.761 27.9551C149.86 31.1583 151.111 34.3163 152.044 37.5689C152.947 34.349 153.972 31.1617 154.939 27.9584C156.19 27.9534 157.441 27.9584 158.694 27.9584C157.438 31.196 156.2 34.4377 154.939 37.6736C154.128 39.6782 153.302 41.7038 152.067 43.5167C150.873 45.2569 148.999 46.6806 146.796 46.9995C146.535 46.0629 146.268 45.1296 146.004 44.1947C147.79 43.7277 149.349 42.4972 150.088 40.8735C150.258 40.5043 150.008 40.1344 149.88 39.7954C148.224 35.8492 146.574 31.9024 144.931 27.9551Z" fill="#4955C0"/>
<path d="M107.518 6.718L105.763 13H104.278L103.099 8.527L101.866 13L100.39 13.009L98.698 6.718H100.048L101.155 11.596L102.433 6.718H103.837L105.043 11.569L106.159 6.718H107.518ZM112.976 10.399C112.976 10.579 112.964 10.741 112.94 10.885H109.295C109.325 11.245 109.451 11.527 109.673 11.731C109.895 11.935 110.168 12.037 110.492 12.037C110.96 12.037 111.293 11.836 111.491 11.434H112.85C112.706 11.914 112.43 12.31 112.022 12.622C111.614 12.928 111.113 13.081 110.519 13.081C110.039 13.081 109.607 12.976 109.223 12.766C108.845 12.55 108.548 12.247 108.332 11.857C108.122 11.467 108.017 11.017 108.017 10.507C108.017 9.991 108.122 9.538 108.332 9.148C108.542 8.758 108.836 8.458 109.214 8.248C109.592 8.038 110.027 7.933 110.519 7.933C110.993 7.933 111.416 8.035 111.788 8.239C112.166 8.443 112.457 8.734 112.661 9.112C112.871 9.484 112.976 9.913 112.976 10.399ZM111.671 10.039C111.665 9.715 111.548 9.457 111.32 9.265C111.092 9.067 110.813 8.968 110.483 8.968C110.171 8.968 109.907 9.064 109.691 9.256C109.481 9.442 109.352 9.703 109.304 10.039H111.671ZM115.155 8.743C115.317 8.503 115.539 8.308 115.821 8.158C116.109 8.008 116.436 7.933 116.802 7.933C117.228 7.933 117.612 8.038 117.954 8.248C118.302 8.458 118.575 8.758 118.773 9.148C118.977 9.532 119.079 9.979 119.079 10.489C119.079 10.999 118.977 11.452 118.773 11.848C118.575 12.238 118.302 12.541 117.954 12.757C117.612 12.973 117.228 13.081 116.802 13.081C116.43 13.081 116.103 13.009 115.821 12.865C115.545 12.715 115.323 12.523 115.155 12.289V13H113.895V6.34H115.155V8.743ZM117.792 10.489C117.792 10.189 117.729 9.931 117.603 9.715C117.483 9.493 117.321 9.325 117.117 9.211C116.919 9.097 116.703 9.04 116.469 9.04C116.241 9.04 116.025 9.1 115.821 9.22C115.623 9.334 115.461 9.502 115.335 9.724C115.215 9.946 115.155 10.207 115.155 10.507C115.155 10.807 115.215 11.068 115.335 11.29C115.461 11.512 115.623 11.683 115.821 11.803C116.025 11.917 116.241 11.974 116.469 11.974C116.703 11.974 116.919 11.914 117.117 11.794C117.321 11.674 117.483 11.503 117.603 11.281C117.729 11.059 117.792 10.795 117.792 10.489ZM124.309 13.063C123.871 13.063 123.475 12.988 123.121 12.838C122.773 12.688 122.497 12.472 122.293 12.19C122.089 11.908 121.984 11.575 121.978 11.191H123.328C123.346 11.449 123.436 11.653 123.598 11.803C123.766 11.953 123.994 12.028 124.282 12.028C124.576 12.028 124.807 11.959 124.975 11.821C125.143 11.677 125.227 11.491 125.227 11.263C125.227 11.077 125.17 10.924 125.056 10.804C124.942 10.684 124.798 10.591 124.624 10.525C124.456 10.453 124.222 10.375 123.922 10.291C123.514 10.171 123.181 10.054 122.923 9.94C122.671 9.82 122.452 9.643 122.266 9.409C122.086 9.169 121.996 8.851 121.996 8.455C121.996 8.083 122.089 7.759 122.275 7.483C122.461 7.207 122.722 6.997 123.058 6.853C123.394 6.703 123.778 6.628 124.21 6.628C124.858 6.628 125.383 6.787 125.785 7.105C126.193 7.417 126.418 7.855 126.46 8.419H125.074C125.062 8.203 124.969 8.026 124.795 7.888C124.627 7.744 124.402 7.672 124.12 7.672C123.874 7.672 123.676 7.735 123.526 7.861C123.382 7.987 123.31 8.17 123.31 8.41C123.31 8.578 123.364 8.719 123.472 8.833C123.586 8.941 123.724 9.031 123.886 9.103C124.054 9.169 124.288 9.247 124.588 9.337C124.996 9.457 125.329 9.577 125.587 9.697C125.845 9.817 126.067 9.997 126.253 10.237C126.439 10.477 126.532 10.792 126.532 11.182C126.532 11.518 126.445 11.83 126.271 12.118C126.097 12.406 125.842 12.637 125.506 12.811C125.17 12.979 124.771 13.063 124.309 13.063ZM127.3 10.507C127.3 9.991 127.405 9.541 127.615 9.157C127.825 8.767 128.116 8.467 128.488 8.257C128.86 8.041 129.286 7.933 129.766 7.933C130.384 7.933 130.894 8.089 131.296 8.401C131.704 8.707 131.977 9.139 132.115 9.697H130.756C130.684 9.481 130.561 9.313 130.387 9.193C130.219 9.067 130.009 9.004 129.757 9.004C129.397 9.004 129.112 9.136 128.902 9.4C128.692 9.658 128.587 10.027 128.587 10.507C128.587 10.981 128.692 11.35 128.902 11.614C129.112 11.872 129.397 12.001 129.757 12.001C130.267 12.001 130.6 11.773 130.756 11.317H132.115C131.977 11.857 131.704 12.286 131.296 12.604C130.888 12.922 130.378 13.081 129.766 13.081C129.286 13.081 128.86 12.976 128.488 12.766C128.116 12.55 127.825 12.25 127.615 11.866C127.405 11.476 127.3 11.023 127.3 10.507ZM135.846 7.942C136.224 7.942 136.56 8.026 136.854 8.194C137.148 8.356 137.376 8.599 137.538 8.923C137.706 9.241 137.79 9.625 137.79 10.075V13H136.53V10.246C136.53 9.85 136.431 9.547 136.233 9.337C136.035 9.121 135.765 9.013 135.423 9.013C135.075 9.013 134.799 9.121 134.595 9.337C134.397 9.547 134.298 9.85 134.298 10.246V13H133.038V6.34H134.298V8.635C134.46 8.419 134.676 8.251 134.946 8.131C135.216 8.005 135.516 7.942 135.846 7.942ZM141.202 13.081C140.722 13.081 140.29 12.976 139.906 12.766C139.522 12.55 139.219 12.247 138.997 11.857C138.781 11.467 138.673 11.017 138.673 10.507C138.673 9.997 138.784 9.547 139.006 9.157C139.234 8.767 139.543 8.467 139.933 8.257C140.323 8.041 140.758 7.933 141.238 7.933C141.718 7.933 142.153 8.041 142.543 8.257C142.933 8.467 143.239 8.767 143.461 9.157C143.689 9.547 143.803 9.997 143.803 10.507C143.803 11.017 143.686 11.467 143.452 11.857C143.224 12.247 142.912 12.55 142.516 12.766C142.126 12.976 141.688 13.081 141.202 13.081ZM141.202 11.983C141.43 11.983 141.643 11.929 141.841 11.821C142.045 11.707 142.207 11.539 142.327 11.317C142.447 11.095 142.507 10.825 142.507 10.507C142.507 10.033 142.381 9.67 142.129 9.418C141.883 9.16 141.58 9.031 141.22 9.031C140.86 9.031 140.557 9.16 140.311 9.418C140.071 9.67 139.951 10.033 139.951 10.507C139.951 10.981 140.068 11.347 140.302 11.605C140.542 11.857 140.842 11.983 141.202 11.983ZM146.941 13.081C146.461 13.081 146.029 12.976 145.645 12.766C145.261 12.55 144.958 12.247 144.736 11.857C144.52 11.467 144.412 11.017 144.412 10.507C144.412 9.997 144.523 9.547 144.745 9.157C144.973 8.767 145.282 8.467 145.672 8.257C146.062 8.041 146.497 7.933 146.977 7.933C147.457 7.933 147.892 8.041 148.282 8.257C148.672 8.467 148.978 8.767 149.2 9.157C149.428 9.547 149.542 9.997 149.542 10.507C149.542 11.017 149.425 11.467 149.191 11.857C148.963 12.247 148.651 12.55 148.255 12.766C147.865 12.976 147.427 13.081 146.941 13.081ZM146.941 11.983C147.169 11.983 147.382 11.929 147.58 11.821C147.784 11.707 147.946 11.539 148.066 11.317C148.186 11.095 148.246 10.825 148.246 10.507C148.246 10.033 148.12 9.67 147.868 9.418C147.622 9.16 147.319 9.031 146.959 9.031C146.599 9.031 146.296 9.16 146.05 9.418C145.81 9.67 145.69 10.033 145.69 10.507C145.69 10.981 145.807 11.347 146.041 11.605C146.281 11.857 146.581 11.983 146.941 11.983ZM151.727 6.34V13H150.467V6.34H151.727Z" fill="#4955C0"/>
<rect x="92.5" y="0.5" width="66" height="19" rx="4.5" stroke="#4955C0"/>
</svg>
