<svg width="182" height="104" viewBox="0 0 182 104" fill="none" xmlns="http://www.w3.org/2000/svg">
<rect width="182" height="104" rx="8" fill="#F5F5F5"/>
<rect x="28" y="16" width="126" height="72" rx="8" fill="white"/>
<path d="M55.228 57.27C56.264 57.27 57.1693 57.4707 57.944 57.872C58.728 58.264 59.33 58.8333 59.75 59.58C60.1793 60.3173 60.394 61.1807 60.394 62.17C60.394 63.1593 60.1793 64.018 59.75 64.746C59.33 65.474 58.728 66.034 57.944 66.426C57.1693 66.8087 56.264 67 55.228 67H52.05V57.27H55.228ZM55.228 65.698C56.3667 65.698 57.2393 65.39 57.846 64.774C58.4527 64.158 58.756 63.29 58.756 62.17C58.756 61.0407 58.4527 60.1587 57.846 59.524C57.2393 58.8893 56.3667 58.572 55.228 58.572H53.646V65.698H55.228ZM69.0458 62.954C69.0458 63.2433 69.0271 63.5047 68.9898 63.738H63.0958C63.1424 64.354 63.3711 64.8487 63.7818 65.222C64.1924 65.5953 64.6964 65.782 65.2938 65.782C66.1524 65.782 66.7591 65.4227 67.1138 64.704H68.8358C68.6024 65.4133 68.1778 65.9967 67.5618 66.454C66.9551 66.902 66.1991 67.126 65.2938 67.126C64.5564 67.126 63.8938 66.9627 63.3058 66.636C62.7271 66.3 62.2698 65.8333 61.9338 65.236C61.6071 64.6293 61.4438 63.9293 61.4438 63.136C61.4438 62.3427 61.6024 61.6473 61.9198 61.05C62.2464 60.4433 62.6991 59.9767 63.2778 59.65C63.8658 59.3233 64.5378 59.16 65.2938 59.16C66.0218 59.16 66.6704 59.3187 67.2398 59.636C67.8091 59.9533 68.2524 60.4013 68.5698 60.98C68.8871 61.5493 69.0458 62.2073 69.0458 62.954ZM67.3798 62.45C67.3704 61.862 67.1604 61.3907 66.7498 61.036C66.3391 60.6813 65.8304 60.504 65.2238 60.504C64.6731 60.504 64.2018 60.6813 63.8098 61.036C63.4178 61.3813 63.1844 61.8527 63.1098 62.45H67.3798ZM73.4164 67.126C72.8097 67.126 72.2637 67.0187 71.7784 66.804C71.3024 66.58 70.9244 66.2813 70.6444 65.908C70.3644 65.5253 70.2151 65.1007 70.1964 64.634H71.8484C71.8764 64.9607 72.0304 65.236 72.3104 65.46C72.5997 65.6747 72.9591 65.782 73.3884 65.782C73.8364 65.782 74.1817 65.698 74.4244 65.53C74.6764 65.3527 74.8024 65.1287 74.8024 64.858C74.8024 64.5687 74.6624 64.354 74.3824 64.214C74.1117 64.074 73.6777 63.92 73.0804 63.752C72.5017 63.5933 72.0304 63.4393 71.6664 63.29C71.3024 63.1407 70.9851 62.912 70.7144 62.604C70.4531 62.296 70.3224 61.89 70.3224 61.386C70.3224 60.9753 70.4437 60.602 70.6864 60.266C70.9291 59.9207 71.2744 59.65 71.7224 59.454C72.1797 59.258 72.7024 59.16 73.2904 59.16C74.1677 59.16 74.8724 59.384 75.4044 59.832C75.9457 60.2707 76.2351 60.8727 76.2724 61.638H74.6764C74.6484 61.2927 74.5084 61.0173 74.2564 60.812C74.0044 60.6067 73.6637 60.504 73.2344 60.504C72.8144 60.504 72.4924 60.5833 72.2684 60.742C72.0444 60.9007 71.9324 61.1107 71.9324 61.372C71.9324 61.5773 72.0071 61.75 72.1564 61.89C72.3057 62.03 72.4877 62.142 72.7024 62.226C72.9171 62.3007 73.2344 62.3987 73.6544 62.52C74.2144 62.6693 74.6717 62.8233 75.0264 62.982C75.3904 63.1313 75.7031 63.3553 75.9644 63.654C76.2257 63.9527 76.3611 64.3493 76.3704 64.844C76.3704 65.2827 76.2491 65.6747 76.0064 66.02C75.7637 66.3653 75.4184 66.636 74.9704 66.832C74.5317 67.028 74.0137 67.126 73.4164 67.126ZM77.5629 63.136C77.5629 62.3427 77.7216 61.6473 78.0389 61.05C78.3656 60.4433 78.8136 59.9767 79.3829 59.65C79.9523 59.3233 80.6056 59.16 81.3429 59.16C82.2763 59.16 83.0463 59.384 83.6529 59.832C84.2689 60.2707 84.6843 60.9007 84.8989 61.722H83.1769C83.0369 61.3393 82.8129 61.0407 82.5049 60.826C82.1969 60.6113 81.8096 60.504 81.3429 60.504C80.6896 60.504 80.1669 60.7373 79.7749 61.204C79.3923 61.6613 79.2009 62.3053 79.2009 63.136C79.2009 63.9667 79.3923 64.6153 79.7749 65.082C80.1669 65.5487 80.6896 65.782 81.3429 65.782C82.2669 65.782 82.8783 65.376 83.1769 64.564H84.8989C84.6749 65.348 84.2549 65.9733 83.6389 66.44C83.0229 66.8973 82.2576 67.126 81.3429 67.126C80.6056 67.126 79.9523 66.9627 79.3829 66.636C78.8136 66.3 78.3656 65.8333 78.0389 65.236C77.7216 64.6293 77.5629 63.9293 77.5629 63.136ZM88.0855 60.406C88.3188 60.014 88.6268 59.7107 89.0095 59.496C89.4015 59.272 89.8635 59.16 90.3955 59.16V60.812H89.9895C89.3641 60.812 88.8881 60.9707 88.5615 61.288C88.2441 61.6053 88.0855 62.156 88.0855 62.94V67H86.4895V59.286H88.0855V60.406ZM92.6745 58.264C92.3852 58.264 92.1425 58.166 91.9465 57.97C91.7505 57.774 91.6525 57.5313 91.6525 57.242C91.6525 56.9527 91.7505 56.71 91.9465 56.514C92.1425 56.318 92.3852 56.22 92.6745 56.22C92.9545 56.22 93.1925 56.318 93.3885 56.514C93.5845 56.71 93.6825 56.9527 93.6825 57.242C93.6825 57.5313 93.5845 57.774 93.3885 57.97C93.1925 58.166 92.9545 58.264 92.6745 58.264ZM93.4585 59.286V67H91.8625V59.286H93.4585ZM97.1499 60.42C97.4206 60.0653 97.7892 59.7667 98.2559 59.524C98.7226 59.2813 99.2499 59.16 99.8379 59.16C100.51 59.16 101.121 59.328 101.672 59.664C102.232 59.9907 102.671 60.4527 102.988 61.05C103.305 61.6473 103.464 62.3333 103.464 63.108C103.464 63.8827 103.305 64.578 102.988 65.194C102.671 65.8007 102.232 66.2767 101.672 66.622C101.121 66.958 100.51 67.126 99.8379 67.126C99.2499 67.126 98.7272 67.0093 98.2699 66.776C97.8126 66.5333 97.4392 66.2347 97.1499 65.88V70.668H95.5539V59.286H97.1499V60.42ZM101.84 63.108C101.84 62.576 101.728 62.1187 101.504 61.736C101.289 61.344 101 61.05 100.636 60.854C100.281 60.6487 99.8986 60.546 99.4879 60.546C99.0866 60.546 98.7039 60.6487 98.3399 60.854C97.9852 61.0593 97.6959 61.358 97.4719 61.75C97.2572 62.142 97.1499 62.604 97.1499 63.136C97.1499 63.668 97.2572 64.1347 97.4719 64.536C97.6959 64.928 97.9852 65.2267 98.3399 65.432C98.7039 65.6373 99.0866 65.74 99.4879 65.74C99.8986 65.74 100.281 65.6373 100.636 65.432C101 65.2173 101.289 64.9093 101.504 64.508C101.728 64.1067 101.84 63.64 101.84 63.108ZM106.904 60.588V64.858C106.904 65.1473 106.97 65.3573 107.1 65.488C107.24 65.6093 107.474 65.67 107.8 65.67H108.78V67H107.52C106.802 67 106.251 66.832 105.868 66.496C105.486 66.16 105.294 65.614 105.294 64.858V60.588H104.384V59.286H105.294V57.368H106.904V59.286H108.78V60.588H106.904ZM111.063 58.264C110.774 58.264 110.531 58.166 110.335 57.97C110.139 57.774 110.041 57.5313 110.041 57.242C110.041 56.9527 110.139 56.71 110.335 56.514C110.531 56.318 110.774 56.22 111.063 56.22C111.343 56.22 111.581 56.318 111.777 56.514C111.973 56.71 112.071 56.9527 112.071 57.242C112.071 57.5313 111.973 57.774 111.777 57.97C111.581 58.166 111.343 58.264 111.063 58.264ZM111.847 59.286V67H110.251V59.286H111.847ZM117.289 67.126C116.561 67.126 115.903 66.9627 115.315 66.636C114.727 66.3 114.265 65.8333 113.929 65.236C113.593 64.6293 113.425 63.9293 113.425 63.136C113.425 62.352 113.597 61.6567 113.943 61.05C114.288 60.4433 114.759 59.9767 115.357 59.65C115.954 59.3233 116.621 59.16 117.359 59.16C118.096 59.16 118.763 59.3233 119.361 59.65C119.958 59.9767 120.429 60.4433 120.775 61.05C121.12 61.6567 121.293 62.352 121.293 63.136C121.293 63.92 121.115 64.6153 120.761 65.222C120.406 65.8287 119.921 66.3 119.305 66.636C118.698 66.9627 118.026 67.126 117.289 67.126ZM117.289 65.74C117.699 65.74 118.082 65.642 118.437 65.446C118.801 65.25 119.095 64.956 119.319 64.564C119.543 64.172 119.655 63.696 119.655 63.136C119.655 62.576 119.547 62.1047 119.333 61.722C119.118 61.33 118.833 61.036 118.479 60.84C118.124 60.644 117.741 60.546 117.331 60.546C116.92 60.546 116.537 60.644 116.183 60.84C115.837 61.036 115.562 61.33 115.357 61.722C115.151 62.1047 115.049 62.576 115.049 63.136C115.049 63.9667 115.259 64.6107 115.679 65.068C116.108 65.516 116.645 65.74 117.289 65.74ZM126.762 59.16C127.369 59.16 127.91 59.286 128.386 59.538C128.872 59.79 129.25 60.1633 129.52 60.658C129.791 61.1527 129.926 61.75 129.926 62.45V67H128.344V62.688C128.344 61.9973 128.172 61.47 127.826 61.106C127.481 60.7327 127.01 60.546 126.412 60.546C125.815 60.546 125.339 60.7327 124.984 61.106C124.639 61.47 124.466 61.9973 124.466 62.688V67H122.87V59.286H124.466V60.168C124.728 59.8507 125.059 59.6033 125.46 59.426C125.871 59.2487 126.305 59.16 126.762 59.16Z" fill="#FF613D"/>
<rect x="52" y="31" width="78" height="14" rx="7" fill="#F2F2F2"/>
</svg>
