<svg width="20" height="21" viewBox="0 0 20 21" fill="none" xmlns="http://www.w3.org/2000/svg">
<path d="M3.87823 14.6922L3.18363 14.9751H3.18363L3.87823 14.6922ZM3.58906 10.0064L4.31298 10.2024L3.58906 10.0064ZM16.4122 10.0064L15.6883 10.2024L16.4122 10.0064ZM16.1231 14.6922L16.8177 14.9751L16.1231 14.6922ZM11.6977 17.8683L11.5819 17.1273H11.5819L11.6977 17.8683ZM8.30358 17.8683L8.18781 18.6093L8.30358 17.8683ZM7.21415 6.84735L7.06483 6.11237H7.06483L7.21415 6.84735ZM12.7872 6.84735L12.6378 7.58234L12.6379 7.58234L12.7872 6.84735ZM7.67964 17.7708L7.79541 17.0298L7.67964 17.7708ZM3.95564 14.8823L4.65024 14.5994H4.65024L3.95564 14.8823ZM12.3216 17.7708L12.4374 18.5118H12.4374L12.3216 17.7708ZM16.0456 14.8823L15.351 14.5994V14.5994L16.0456 14.8823ZM13.0173 6.8941L13.1666 6.15911L13.1666 6.15911L13.0173 6.8941ZM6.98406 6.89409L7.13337 7.62908H7.13337L6.98406 6.89409ZM5.62066 6.70456C5.62066 7.11877 5.95645 7.45456 6.37066 7.45456C6.78487 7.45456 7.12066 7.11877 7.12066 6.70456H5.62066ZM6.37066 6.50782H5.62066H6.37066ZM9.09963 3.12007L8.91782 2.39244L8.91782 2.39245L9.09963 3.12007ZM9.15659 3.10584L9.3384 3.83347L9.3384 3.83347L9.15659 3.10584ZM12.4346 3.96053L11.9154 4.5017V4.5017L12.4346 3.96053ZM12.1283 4.70598C12.4271 4.99276 12.9019 4.98296 13.1887 4.68408C13.4755 4.3852 13.4657 3.91042 13.1668 3.62364L12.1283 4.70598ZM10.8468 3.09792L11.0218 2.36861L10.8468 3.09792ZM7.13337 7.62908L7.36346 7.58234L7.06483 6.11237L6.83474 6.15911L7.13337 7.62908ZM12.6379 7.58234L12.8679 7.62908L13.1666 6.15911L12.9365 6.11237L12.6379 7.58234ZM12.2059 17.0298L11.5819 17.1273L11.8135 18.6093L12.4374 18.5118L12.2059 17.0298ZM8.41935 17.1273L7.79541 17.0298L7.56387 18.5118L8.18781 18.6093L8.41935 17.1273ZM15.4285 14.4093L15.351 14.5994L16.7402 15.1652L16.8177 14.9751L15.4285 14.4093ZM4.65024 14.5994L4.57283 14.4093L3.18363 14.9751L3.26104 15.1652L4.65024 14.5994ZM4.57283 14.4093C4.02623 13.0672 3.93566 11.5956 4.31298 10.2024L2.86514 9.8103C2.40166 11.5216 2.5135 13.3297 3.18363 14.9751L4.57283 14.4093ZM15.6883 10.2024C16.0656 11.5956 15.9751 13.0672 15.4285 14.4093L16.8177 14.9751C17.4878 13.3297 17.5996 11.5216 17.1362 9.8103L15.6883 10.2024ZM11.5819 17.1273C10.5347 17.2909 9.46661 17.2909 8.41935 17.1273L8.18781 18.6093C9.3885 18.7969 10.6128 18.7969 11.8135 18.6093L11.5819 17.1273ZM7.36346 7.58234C9.10223 7.2291 10.8991 7.2291 12.6378 7.58234L12.9365 6.11237C11.0006 5.7191 9.00068 5.7191 7.06483 6.11237L7.36346 7.58234ZM7.79541 17.0298C6.35791 16.8052 5.16865 15.8722 4.65024 14.5994L3.26104 15.1652C3.98633 16.946 5.6289 18.2095 7.56387 18.5118L7.79541 17.0298ZM12.4374 18.5118C14.3724 18.2095 16.0149 16.946 16.7402 15.1652L15.351 14.5994C14.8326 15.8723 13.6434 16.8052 12.2059 17.0298L12.4374 18.5118ZM12.8679 7.62908C14.258 7.91148 15.3405 8.91813 15.6883 10.2024L17.1362 9.8103C16.633 7.95268 15.0863 6.54911 13.1666 6.15911L12.8679 7.62908ZM6.83474 6.15911C4.91499 6.54911 3.36827 7.95268 2.86514 9.8103L4.31298 10.2024C4.66083 8.91813 5.74327 7.91148 7.13337 7.62908L6.83474 6.15911ZM7.12066 6.70456V6.50782H5.62066V6.70456H7.12066ZM9.28145 3.8477L9.3384 3.83347L8.97477 2.37821L8.91782 2.39244L9.28145 3.8477ZM11.9154 4.5017L12.1283 4.70598L13.1668 3.62364L12.9539 3.41936L11.9154 4.5017ZM10.6719 3.82723C11.1459 3.94093 11.5752 4.1753 11.9154 4.5017L12.9539 3.41936C12.418 2.90518 11.7497 2.54323 11.0218 2.36861L10.6719 3.82723ZM9.3384 3.83347C9.77516 3.72434 10.234 3.72218 10.6719 3.82723L11.0218 2.36861C10.3493 2.20728 9.64569 2.21057 8.97477 2.37821L9.3384 3.83347ZM7.12066 6.50782C7.12066 5.27741 7.9893 4.17057 9.28145 3.8477L8.91782 2.39245C6.99548 2.87279 5.62066 4.55099 5.62066 6.50782H7.12066Z" fill="#1CBE2B"/>
<path d="M10 11.75L10 13.4167" stroke="#1CBE2B" stroke-width="1.5" stroke-linecap="round"/>
</svg>
